<svg width="31" height="32" viewBox="0 0 31 32" fill="none" xmlns="http://www.w3.org/2000/svg">
<path d="M24.5417 18.5173V13.8854C24.5417 9.73012 21.7194 6.2297 17.896 5.17699C17.5176 4.22374 16.5928 3.55208 15.5 3.55208C14.4073 3.55208 13.4824 4.22374 13.104 5.17699C9.28063 6.23099 6.45833 9.73012 6.45833 13.8854V18.5173L4.25346 20.7222C4.13328 20.8419 4.03797 20.9843 3.97302 21.141C3.90807 21.2977 3.87476 21.4658 3.875 21.6354V24.2187C3.875 24.5613 4.01109 24.8899 4.25332 25.1321C4.49556 25.3743 4.8241 25.5104 5.16667 25.5104H25.8333C26.1759 25.5104 26.5044 25.3743 26.7467 25.1321C26.9889 24.8899 27.125 24.5613 27.125 24.2187V21.6354C27.1252 21.4658 27.0919 21.2977 27.027 21.141C26.962 20.9843 26.8667 20.8419 26.7465 20.7222L24.5417 18.5173ZM24.5417 22.9271H6.45833V22.1702L8.66321 19.9653C8.78339 19.8455 8.8787 19.7032 8.94365 19.5465C9.0086 19.3898 9.04191 19.2217 9.04167 19.0521V13.8854C9.04167 10.3243 11.9389 7.42708 15.5 7.42708C19.0611 7.42708 21.9583 10.3243 21.9583 13.8854V19.0521C21.9583 19.3957 22.094 19.7237 22.3368 19.9653L24.5417 22.1702V22.9271ZM15.5 29.3854C16.2999 29.3864 17.0803 29.1382 17.7326 28.6752C18.385 28.2122 18.8769 27.5575 19.1399 26.8021H11.8601C12.1231 27.5575 12.615 28.2122 13.2674 28.6752C13.9197 29.1382 14.7001 29.3864 15.5 29.3854Z" fill="#C5C5C5" fill-opacity="0.99"/>
<circle cx="23.25" cy="6.78125" r="6.78125" fill="#E50914"/>
</svg>
