<svg width="41" height="41" viewBox="0 0 41 41" fill="none" xmlns="http://www.w3.org/2000/svg">
<rect width="41" height="41" rx="9" fill="#A270D5" fill-opacity="0.22"/>
<g clip-path="url(#clip0_10_734)">
<path d="M27.3333 29.0417H25.625V27.3333C25.625 26.6537 25.355 26.0019 24.8744 25.5214C24.3939 25.0408 23.7421 24.7708 23.0625 24.7708H17.9375C17.2578 24.7708 16.6061 25.0408 16.1255 25.5214C15.6449 26.0019 15.375 26.6537 15.375 27.3333V29.0417H13.6666V27.3333C13.6666 26.2006 14.1166 25.1143 14.9175 24.3134C15.7185 23.5125 16.8048 23.0625 17.9375 23.0625H23.0625C24.1952 23.0625 25.2815 23.5125 26.0824 24.3134C26.8833 25.1143 27.3333 26.2006 27.3333 27.3333V29.0417ZM20.5 21.3542C19.8269 21.3542 19.1605 21.2216 18.5387 20.964C17.9169 20.7065 17.3519 20.329 16.876 19.8531C16.4001 19.3772 16.0226 18.8122 15.7651 18.1904C15.5075 17.5686 15.375 16.9022 15.375 16.2292C15.375 15.5561 15.5075 14.8897 15.7651 14.2679C16.0226 13.6461 16.4001 13.0811 16.876 12.6052C17.3519 12.1293 17.9169 11.7518 18.5387 11.4943C19.1605 11.2367 19.8269 11.1042 20.5 11.1042C21.8592 11.1042 23.1628 11.6441 24.1239 12.6052C25.085 13.5664 25.625 14.8699 25.625 16.2292C25.625 17.5884 25.085 18.892 24.1239 19.8531C23.1628 20.8142 21.8592 21.3542 20.5 21.3542ZM20.5 19.6458C21.4061 19.6458 22.2752 19.2859 22.9159 18.6451C23.5567 18.0044 23.9166 17.1353 23.9166 16.2292C23.9166 15.323 23.5567 14.454 22.9159 13.8132C22.2752 13.1725 21.4061 12.8125 20.5 12.8125C19.5938 12.8125 18.7248 13.1725 18.084 13.8132C17.4433 14.454 17.0833 15.323 17.0833 16.2292C17.0833 17.1353 17.4433 18.0044 18.084 18.6451C18.7248 19.2859 19.5938 19.6458 20.5 19.6458Z" fill="white"/>
</g>
<defs>
<clipPath id="clip0_10_734">
<rect width="20.5" height="20.5" fill="white" transform="translate(10.25 10.25)"/>
</clipPath>
</defs>
</svg>
